<svg width="56" height="49" viewBox="0 0 56 49" fill="none" xmlns="http://www.w3.org/2000/svg">
<rect y="0.626953" width="56" height="48" rx="16" fill="#455B73"/>
<path fillRule="evenodd" clipRule="evenodd" d="M28.0001 12.627C23.4015 12.627 19.5208 16.4366 19.5208 21.0686C19.5208 23.4236 18.9244 25.8138 18.3102 27.6421C18.0051 28.5505 17.7 29.3071 17.4721 29.8346C17.3583 30.0982 17.264 30.3039 17.199 30.4421C17.1665 30.5112 17.1413 30.5634 17.1248 30.5974L17.1065 30.6347L17.1024 30.6428L17.1018 30.644C16.9554 30.9348 16.9676 31.2825 17.1339 31.5618C17.3003 31.8411 17.5969 32.0116 17.9167 32.0116L22.7391 32.0116C23.0317 34.6077 25.2755 36.627 28 36.627C30.7245 36.627 32.9683 34.6077 33.2609 32.0116L38.0835 32.0116C38.3894 32.0116 38.6751 31.8554 38.8453 31.5953C39.0154 31.3352 39.0473 31.0049 38.9307 30.7155L38.9248 30.7008L38.905 30.6508C38.8873 30.6062 38.8611 30.5394 38.8276 30.4526C38.7604 30.2789 38.6639 30.0252 38.5479 29.7086C38.3156 29.0747 38.006 28.1915 37.6968 27.1944C37.0682 25.1673 36.4793 22.787 36.4793 21.0686C36.4793 16.4366 32.5986 12.627 28.0001 12.627ZM31.3305 32.0116H24.6695C24.9474 33.6039 26.3557 34.7808 28 34.7808C29.6443 34.7808 31.0526 33.6039 31.3305 32.0116ZM36.747 30.1356H19.3417C19.5527 29.6224 19.7984 28.9831 20.044 28.252C20.6902 26.3284 21.3542 23.7162 21.3542 21.0686C21.3542 17.5266 24.3605 14.5029 28.0001 14.5029C31.6397 14.5029 34.6459 17.5266 34.6459 21.0686C34.6459 23.1021 35.3175 25.7244 35.9493 27.7618C36.2341 28.6801 36.5186 29.5036 36.747 30.1356Z" fill="#F5FAFF"/>
</svg>
