<svg width="25" height="25" viewBox="0 0 25 25" fill="none" xmlns="http://www.w3.org/2000/svg">
<g id="Libro">
<path id="Vector" fill-rule="evenodd" clip-rule="evenodd" d="M2.5 4.92695C2.5 2.27599 4.64904 0.126953 7.3 0.126953H18.1C20.0883 0.126953 21.7 1.73874 21.7 3.72695V22.927C21.7 23.5897 21.1627 24.127 20.5 24.127H6.1C4.11179 24.127 2.5 22.5152 2.5 20.527V4.92695ZM4.9 17.1318V4.92695C4.9 3.60147 5.97452 2.52695 7.3 2.52695H18.1C18.7628 2.52695 19.3 3.0642 19.3 3.72695V16.927H6.1C5.67924 16.927 5.27534 16.9991 4.9 17.1318ZM19.3 19.327H6.1C5.43725 19.327 4.9 19.8642 4.9 20.527C4.9 21.1897 5.43725 21.727 6.1 21.727H19.3V19.327ZM8.5 7.32695C8.5 6.66421 9.03726 6.12695 9.7 6.12695H14.5C15.1627 6.12695 15.7 6.66421 15.7 7.32695C15.7 7.98969 15.1627 8.52695 14.5 8.52695H9.7C9.03726 8.52695 8.5 7.98969 8.5 7.32695Z" fill="#F5FAFF"/>
</g>
</svg>
