<svg width="24" height="24" viewBox="0 0 24 24" fill="none" xmlns="http://www.w3.org/2000/svg">
<g id="Instagram">
<path id="Vector" fillRule="evenodd" clipRule="evenodd" d="M0.713411 3.57388C0 4.97403 0 6.80694 0 10.4727V13.5273C0 17.1931 0 19.026 0.713411 20.4261C1.34095 21.6577 2.34227 22.6591 3.57388 23.2865C4.97403 24 6.80693 24 10.4727 24H10.4727H13.5273H13.5273C17.1931 24 19.026 24 20.4261 23.2865C21.6577 22.6591 22.6591 21.6577 23.2865 20.4261C24 19.026 24 17.1931 24 13.5273V13.5273V10.4727V10.4727C24 6.80693 24 4.97403 23.2865 3.57388C22.6591 2.34227 21.6577 1.34095 20.4261 0.713411C19.026 0 17.1931 0 13.5273 0H10.4727C6.80694 0 4.97403 0 3.57388 0.713411C2.34227 1.34095 1.34095 2.34227 0.713411 3.57388ZM13.5273 2.18182H10.4727C8.60383 2.18182 7.33336 2.18352 6.35136 2.26375C5.39481 2.3419 4.90564 2.48355 4.56441 2.65742C3.74333 3.07579 3.07579 3.74333 2.65742 4.56441C2.48355 4.90564 2.3419 5.39481 2.26375 6.35136C2.18352 7.33336 2.18182 8.60383 2.18182 10.4727V13.5273C2.18182 15.3962 2.18352 16.6666 2.26375 17.6486C2.3419 18.6052 2.48355 19.0944 2.65742 19.4356C3.07579 20.2567 3.74333 20.9242 4.56441 21.3425C4.90564 21.5164 5.39481 21.6581 6.35136 21.7363C7.33336 21.8164 8.60383 21.8182 10.4727 21.8182H13.5273C15.3962 21.8182 16.6666 21.8164 17.6486 21.7363C18.6052 21.6581 19.0944 21.5164 19.4356 21.3425C20.2567 20.9242 20.9242 20.2567 21.3425 19.4356C21.5164 19.0944 21.6581 18.6052 21.7363 17.6486C21.8164 16.6666 21.8182 15.3962 21.8182 13.5273V10.4727C21.8182 8.60383 21.8164 7.33336 21.7363 6.35136C21.6581 5.39481 21.5164 4.90564 21.3425 4.56441C20.9242 3.74333 20.2567 3.07579 19.4356 2.65742C19.0944 2.48355 18.6052 2.3419 17.6486 2.26375C16.6666 2.18352 15.3962 2.18182 13.5273 2.18182ZM11.9996 18.5455C15.6145 18.5455 18.545 15.6149 18.545 12C18.545 8.38504 15.6145 5.45454 11.9996 5.45454C8.3846 5.45454 5.4541 8.38504 5.4541 12C5.4541 15.6149 8.3846 18.5455 11.9996 18.5455ZM11.9996 16.3636C14.4095 16.3636 16.3632 14.4099 16.3632 12C16.3632 9.59003 14.4095 7.63636 11.9996 7.63636C9.58959 7.63636 7.63592 9.59003 7.63592 12C7.63592 14.4099 9.58959 16.3636 11.9996 16.3636ZM17.4541 5.45455C17.4541 4.85206 17.9425 4.36364 18.545 4.36364C19.1475 4.36364 19.6359 4.85206 19.6359 5.45455C19.6359 6.05704 19.1475 6.54546 18.545 6.54546C17.9425 6.54546 17.4541 6.05704 17.4541 5.45455Z" fill="white"/>
</g>
</svg>
