<svg width="25" height="26" viewBox="0 0 25 26" fill="none" xmlns="http://www.w3.org/2000/svg">
<g id="Carrito de compras">
<path id="Vector" fillRule="evenodd" clipRule="evenodd" d="M0.923085 0.571411C0.413279 0.571411 0 1.0309 0 1.59771C0 2.16452 0.413279 2.62401 0.923085 2.62401H3.0375L3.25474 4.31471C3.25636 4.32957 3.25825 4.34434 3.26043 4.359L4.75386 15.9819C4.75549 15.9969 4.7574 16.0118 4.75961 16.0266L5.25629 19.8921C5.32125 20.3977 5.71072 20.7733 6.17009 20.7733H6.52868C6.09407 21.2884 5.83008 21.9668 5.83008 22.7101C5.83008 24.3211 7.06992 25.627 8.59933 25.627C10.1288 25.627 11.3686 24.3211 11.3686 22.7101C11.3686 21.9668 11.1046 21.2884 10.67 20.7733H15.7591C15.3245 21.2884 15.0605 21.9668 15.0605 22.7101C15.0605 24.3211 16.3004 25.627 17.8298 25.627C19.3592 25.627 20.5991 24.3211 20.5991 22.7101C20.5991 21.6423 20.0543 20.7085 19.2415 20.2002C19.3021 20.0635 19.3362 19.9097 19.3362 19.747C19.3362 19.1802 18.9229 18.7207 18.4131 18.7207H6.97068L6.73471 16.8841H19.579C19.9763 16.8841 20.3291 16.6015 20.4547 16.1824L23.9527 4.51501C24.0466 4.20204 23.9994 3.858 23.8259 3.59038C23.6524 3.32275 23.3738 3.16417 23.077 3.16417H4.97182L4.7519 1.45257C4.68693 0.946964 4.29746 0.571411 3.83809 0.571411H0.923085ZM5.23556 5.21676L6.47097 14.8315H18.9137L21.7963 5.21676H5.23556ZM8.59933 21.4476C7.93734 21.4476 7.4007 22.0128 7.4007 22.7101C7.4007 23.4074 7.93734 23.9726 8.59933 23.9726C9.26135 23.9726 9.79797 23.4074 9.79797 22.7101C9.79797 22.0128 9.26135 21.4476 8.59933 21.4476ZM16.6312 22.7101C16.6312 22.0128 17.1678 21.4476 17.8298 21.4476C18.4918 21.4476 19.0284 22.0128 19.0284 22.7101C19.0284 23.4074 18.4918 23.9726 17.8298 23.9726C17.1678 23.9726 16.6312 23.4074 16.6312 22.7101Z" fill="#F5FAFF"/>
</g>
</svg>
