<svg width="24" height="24" viewBox="0 0 24 24" fill="none" xmlns="http://www.w3.org/2000/svg">
<g id="TikTok">
<path id="Vector" d="M12.605 0.0200094C14.1127 7.60314e-08 15.6094 0.0104049 17.1052 0C17.1549 1.62556 17.9138 3.08864 19.1213 4.17235L19.1195 4.17075C20.419 5.18802 22.11 5.84753 23.9742 5.95958L24 5.96118V9.99186C22.239 9.95344 20.583 9.60048 19.09 8.9938L19.1655 9.02101C18.4434 8.71927 17.8328 8.40952 17.2525 8.06376L17.3004 8.09098C17.2894 11.0115 17.3115 13.9321 17.2774 16.8423C17.1825 18.3254 16.6152 19.678 15.7052 20.8073L15.7236 20.7825C14.2021 22.6762 11.7374 23.9192 8.93472 23.9928H8.92182C8.80854 23.9976 8.67499 24 8.54052 24C6.94714 24 5.45783 23.6142 4.18865 22.9443L4.22549 22.9627C1.91555 21.755 0.322169 19.6884 0.0274391 17.2849L0.023755 17.2521C0.000729274 16.7518 -0.0103232 16.2516 0.0127026 15.7618C0.464007 11.9368 4.15181 8.97779 8.63446 8.97779C9.13827 8.97779 9.63194 9.01541 10.1118 9.08664L10.0602 9.08024C10.0832 10.5601 10.0142 12.0408 10.0142 13.5207C9.62457 13.3983 9.17511 13.327 8.7063 13.327C6.98582 13.327 5.5223 14.2827 4.98074 15.6169L4.97245 15.6409C4.84995 15.9827 4.77903 16.3756 4.77903 16.7822C4.77903 16.9471 4.79101 17.1104 4.81311 17.2705L4.81127 17.2513C5.11705 18.8888 6.73254 20.1246 8.68051 20.1246C8.7367 20.1246 8.79196 20.1238 8.84722 20.1214H8.83893C10.1864 20.0862 11.3561 19.4563 12.0174 18.5254L12.0266 18.511C12.2725 18.2133 12.4411 17.8531 12.4973 17.4617L12.4982 17.4505C12.6133 15.6601 12.5673 13.8801 12.5783 12.0896C12.5894 8.05896 12.5673 4.03788 12.6013 0.0176083L12.605 0.0200094Z" fill="white"/>
</g>
</svg>
