<svg width="56" height="49" viewBox="0 0 56 49" fill="none" xmlns="http://www.w3.org/2000/svg">
<rect y="0.626953" width="56" height="48" rx="16" fill="#455B73"/>
<path fillRule="evenodd" clipRule="evenodd" d="M16 24.627C16 17.9995 21.3726 12.627 28 12.627C34.6275 12.627 40 17.9995 40 24.627C40 31.2544 34.6275 36.627 28 36.627C21.3726 36.627 16 31.2544 16 24.627ZM28 14.4731C22.3922 14.4731 17.8462 19.0191 17.8462 24.627C17.8462 27.0074 18.6653 29.1965 20.0371 30.9278C20.2356 30.3563 20.5161 29.8042 20.8685 29.3146C21.6245 28.264 22.797 27.3962 24.3077 27.3962H31.6923C33.2031 27.3962 34.3755 28.264 35.1315 29.3146C35.4839 29.8043 35.7644 30.3563 35.9629 30.9279C37.3347 29.1966 38.1538 27.0074 38.1538 24.627C38.1538 19.0191 33.6079 14.4731 28 14.4731ZM34.4378 32.4794C34.3578 31.778 34.0775 31.0106 33.6331 30.3929C33.1054 29.6598 32.4318 29.2423 31.6923 29.2423H24.3077C23.5682 29.2423 22.8946 29.6598 22.367 30.3929C21.9225 31.0106 21.6422 31.778 21.5622 32.4794C23.3143 33.9176 25.5563 34.7808 28 34.7808C30.4437 34.7808 32.6857 33.9176 34.4378 32.4794ZM23.3846 20.9346C23.3846 18.3857 25.4509 16.3193 28 16.3193C30.5491 16.3193 32.6154 18.3857 32.6154 20.9346C32.6154 23.4837 30.5491 25.55 28 25.55C25.4509 25.55 23.3846 23.4837 23.3846 20.9346ZM28 18.1654C26.4705 18.1654 25.2308 19.4052 25.2308 20.9346C25.2308 22.4641 26.4705 23.7039 28 23.7039C29.5295 23.7039 30.7692 22.4641 30.7692 20.9346C30.7692 19.4052 29.5295 18.1654 28 18.1654Z" fill="#F5FAFF"/>
</svg>
