<svg width="24" height="24" viewBox="0 0 24 24" fill="none" xmlns="http://www.w3.org/2000/svg">
<g id="Whatsapp">
<path id="Vector" fill-rule="evenodd" clip-rule="evenodd" d="M8.72727 22.6649C9.92662 23.0535 10.6652 23.1919 12 23.1919C18.6274 23.1919 24 18.0002 24 11.596C24 5.1917 18.6274 0 12 0C5.37259 0 0 5.1917 0 11.596C0 14.9448 0.923509 17.3855 3.27273 19.5023V21.8889C3.27273 23.4562 4.97959 24.4756 6.43029 23.7747L8.72727 22.6649ZM4.76067 17.9603L5.45455 18.5855V21.8889L8.56197 20.3875L9.42104 20.6659C10.4204 20.9898 10.9247 21.0836 12 21.0836C17.4225 21.0836 21.8182 16.8359 21.8182 11.596C21.8182 6.35611 17.4225 2.10836 12 2.10836C6.57757 2.10836 2.18182 6.35611 2.18182 11.596C2.18182 14.4772 2.93549 16.3157 4.76067 17.9603ZM7.89216 5.28189C6.87531 5.13822 5.59403 6.43302 5.46938 7.38572C5.46829 7.39403 5.46714 7.40237 5.46597 7.4108C5.45022 7.52466 5.43208 7.65585 5.54174 7.9675C7.63592 15.0431 14.1556 17.4855 15.7678 17.86C16.6908 18.0745 17.9624 17.019 18.402 16.2185C18.6516 15.7641 18.5671 15.3341 18.2068 15.0431C17.4855 14.4335 16.7055 13.892 15.8775 13.426C15.3231 13.1351 14.7597 13.3112 14.5312 13.606C14.4711 13.6792 14.4091 13.7658 14.3445 13.8559C14.071 14.2374 13.7516 14.6829 13.3409 14.4535C11.9996 13.7043 9.27229 11.0689 9.04257 10.3135C8.92445 9.92499 9.42898 9.53795 9.81733 9.24004C9.85379 9.21208 9.88922 9.1849 9.92301 9.15857C10.2149 8.929 10.4182 8.38496 10.1052 7.848C10.0429 7.74356 9.97372 7.62108 9.89816 7.48722C9.43827 6.67255 8.74047 5.4364 7.89053 5.28032L7.89216 5.28189Z" fill="white"/>
</g>
</svg>
